<?xml version="1.0" encoding="UTF-8"?><svg id="Layer_1" xmlns="http://www.w3.org/2000/svg" viewBox="0 0 250 250"><defs><style>.cls-1{fill:#dde29f;}</style></defs><g id="fLvheL.tif"><path class="cls-1" d="M193.31,68.01l-64.8,80.91c-3.25,1.62-6.02.97-8.79-1.23-18.19-24.34-38.48-47.21-56.84-71.41-3.15-4.15-7.76-8.5-7.04-14,.67-5.11,8.29-7.18,11.6-3.14l57.29,72.01,5.91-6.65,51.98-65.78c6.26-5.26,14.61,1.95,10.68,9.29Z"/><path class="cls-1" d="M125.76,174.49l56.84-72.46c5.74-4.3,13.22.59,11.34,7.49l-65.57,82.6c-2.48.97-4.86,1.65-7.15-.14L56.26,110.86c-2.87-8.5,5.54-14.2,11.88-7.69,17.95,21.46,33.98,44.73,52.06,66.06.9,1.06,4.6,5.94,5.56,5.25Z"/></g></svg>