<?xml version="1.0" encoding="UTF-8"?><svg xmlns="http://www.w3.org/2000/svg" viewBox="0 0 1000 500"><defs><style>.cls-1,.cls-2,.cls-3{fill:#1d2030;}.cls-4{fill:#dde29f;}.cls-5{fill:#fff;}.cls-6{fill:#dee2a6;}.cls-2{stroke-width:3px;}.cls-2,.cls-3,.cls-7{stroke:#b17a85;stroke-miterlimit:10;}.cls-3,.cls-7{stroke-width:5px;}.cls-8,.cls-7{fill:#b17a85;}</style></defs><g id="Layer_1"><rect class="cls-1" x="99" y="85.5" width="174" height="333" rx="9.5" ry="9.5"/><path class="cls-8" d="M263.5,88c3.86,0,7,3.14,7,7v314c0,3.86-3.14,7-7,7H108.5c-3.86,0-7-3.14-7-7V95c0-3.86,3.14-7,7-7h155M263.5,83H108.5c-6.6,0-12,5.4-12,12v314c0,6.6,5.4,12,12,12h155c6.6,0,12-5.4,12-12V95c0-6.6-5.4-12-12-12h0Z"/><circle cx="186" cy="101.5" r="7"/><path class="cls-5" d="M186,95c3.58,0,6.5,2.92,6.5,6.5s-2.92,6.5-6.5,6.5-6.5-2.92-6.5-6.5,2.92-6.5,6.5-6.5M186,94h0c-4.12,0-7.5,3.38-7.5,7.5h0c0,4.13,3.38,7.5,7.5,7.5h0c4.12,0,7.5-3.38,7.5-7.5h0c0-4.13-3.38-7.5-7.5-7.5h0Z"/><rect class="cls-1" x="115.5" y="174.5" width="142" height="77" rx="11.5" ry="11.5"/><path class="cls-6" d="M246,175c6.07,0,11,4.93,11,11v54c0,6.07-4.93,11-11,11h-119c-6.07,0-11-4.93-11-11v-54c0-6.07,4.93-11,11-11h119M246,174h-119c-6.6,0-12,5.4-12,12v54c0,6.6,5.4,12,12,12h119c6.6,0,12-5.4,12-12v-54c0-6.6-5.4-12-12-12h0Z"/><rect class="cls-1" x="115.5" y="121.5" width="143" height="41" rx="11.5" ry="11.5"/><path class="cls-6" d="M247,122c6.07,0,11,4.93,11,11v18c0,6.07-4.93,11-11,11h-120c-6.07,0-11-4.93-11-11v-18c0-6.07,4.93-11,11-11h120M247,121h-120c-6.6,0-12,5.4-12,12v18c0,6.6,5.4,12,12,12h120c6.6,0,12-5.4,12-12v-18c0-6.6-5.4-12-12-12h0Z"/><rect class="cls-1" x="115.5" y="266.5" width="142" height="45" rx="11.5" ry="11.5"/><path class="cls-6" d="M246,267c6.07,0,11,4.93,11,11v22c0,6.07-4.93,11-11,11h-119c-6.07,0-11-4.93-11-11v-22c0-6.07,4.93-11,11-11h119M246,266h-119c-6.6,0-12,5.4-12,12v22c0,6.6,5.4,12,12,12h119c6.6,0,12-5.4,12-12v-22c0-6.6-5.4-12-12-12h0Z"/><rect class="cls-1" x="115" y="332.5" width="60" height="60" rx="11.5" ry="11.5"/><path class="cls-6" d="M163.5,333c6.07,0,11,4.93,11,11v37c0,6.07-4.93,11-11,11h-37c-6.07,0-11-4.93-11-11v-37c0-6.07,4.93-11,11-11h37M163.5,332h-37c-6.6,0-12,5.4-12,12v37c0,6.6,5.4,12,12,12h37c6.6,0,12-5.4,12-12v-37c0-6.6-5.4-12-12-12h0Z"/><rect class="cls-1" x="198.5" y="332.5" width="60" height="60" rx="11.5" ry="11.5"/><path class="cls-6" d="M247,333c6.07,0,11,4.93,11,11v37c0,6.07-4.93,11-11,11h-37c-6.07,0-11-4.93-11-11v-37c0-6.07,4.93-11,11-11h37M247,332h-37c-6.6,0-12,5.4-12,12v37c0,6.6,5.4,12,12,12h37c6.6,0,12-5.4,12-12v-37c0-6.6-5.4-12-12-12h0Z"/><path class="cls-6" d="M156.45,187.7l59.15-.03c1.41.08,2.64,1.16,2.82,2.57v45.96c-.15,1.39-1.38,2.44-2.74,2.57h-59.09c-1.42-.13-2.58-1.22-2.74-2.65v-45.79c.16-1.36,1.21-2.46,2.59-2.62ZM156.53,189.8c-.32.1-.49.37-.61.65l-.04,45.24c.02.48.36.99.88.97l59.11-.07c.33-.2.54-.5.53-.9v-44.95c-.02-.48-.36-.99-.88-.97l-58.99.02Z"/><path class="cls-6" d="M161.83,194.77l48.38-.02c1.17.1,1.93.81,2.06,1.98v33c-.07,1.09-.96,1.96-2.06,1.98h-48.23c-1.17-.13-1.88-.89-1.98-2.06v-32.83c.09-1.09.75-1.86,1.83-2.04ZM210.08,225.3v-28.24l-.13-.13h-47.64l-.13.13v20.91l13.93-12.88,12.16,13.09.12.04,6.55-6.48,15.12,13.54ZM162.19,221.05v8.33l.13.13h14.98l9.47-9.64-10.61-11.62h-.25s-13.72,12.8-13.72,12.8ZM210.08,229.5c.02-.75.12-1.22-.54-1.69l-14.55-13.04-14.53,14.72h29.63Z"/><path class="cls-6" d="M201.98,197.88c3.79-.32,6.73,3.31,5.7,6.96-1.23,4.35-6.99,5.41-9.67,1.76s-.29-8.36,3.97-8.72ZM202.32,200.07c-4.3.13-4.14,6.79.31,6.55,4.18-.22,3.92-6.67-.31-6.55Z"/><path class="cls-6" d="M128.31,348.43h33.11c.79.03,1.48.63,1.58,1.42v25.73c-.08.78-.77,1.37-1.53,1.44h-33.08c-.79-.08-1.45-.68-1.53-1.48v-25.64c.09-.76.68-1.38,1.45-1.47ZM128.35,349.6c-.18.05-.27.21-.34.37l-.02,25.33c.01.27.2.55.49.54l33.09-.04c.19-.11.3-.28.3-.5v-25.17c-.01-.27-.2-.55-.49-.54h-33.02Z"/><path class="cls-6" d="M131.32,352.38h27.08c.65.04,1.08.44,1.15,1.09v18.48c-.04.61-.54,1.1-1.15,1.11h-27c-.66-.07-1.05-.5-1.11-1.15v-18.38c.05-.61.42-1.04,1.03-1.14ZM158.33,369.48v-15.81l-.07-.07h-26.67l-.07.07v11.71l7.8-7.21,6.81,7.33.07.02,3.67-3.63,8.46,7.58ZM131.52,367.1v4.67l.07.07h8.39l5.3-5.4-5.94-6.51h-.14s-7.68,7.17-7.68,7.17ZM158.33,371.83c.01-.42.07-.68-.31-.94l-8.15-7.3-8.13,8.24h16.59Z"/><path class="cls-6" d="M153.8,354.13c2.12-.18,3.77,1.85,3.19,3.9-.69,2.44-3.92,3.03-5.41.99s-.16-4.68,2.22-4.88ZM153.99,355.35c-2.41.07-2.32,3.8.17,3.67,2.34-.12,2.19-3.74-.17-3.67Z"/><path class="cls-6" d="M211.31,349.43h33.11c.79.03,1.48.63,1.58,1.42v25.73c-.08.78-.77,1.37-1.53,1.44h-33.08c-.79-.08-1.45-.68-1.53-1.48v-25.64c.09-.76.68-1.38,1.45-1.47ZM211.35,350.6c-.18.05-.27.21-.34.37l-.02,25.33c.01.27.2.55.49.54l33.09-.04c.19-.11.3-.28.3-.5v-25.17c-.01-.27-.2-.55-.49-.54h-33.02Z"/><path class="cls-6" d="M214.32,353.38h27.08c.65.04,1.08.44,1.15,1.09v18.48c-.04.61-.54,1.1-1.15,1.11h-27c-.66-.07-1.05-.5-1.11-1.15v-18.38c.05-.61.42-1.04,1.03-1.14ZM241.33,370.48v-15.81l-.07-.07h-26.67l-.07.07v11.71l7.8-7.21,6.81,7.33.07.02,3.67-3.63,8.46,7.58ZM214.52,368.1v4.67l.07.07h8.39l5.3-5.4-5.94-6.51h-.14s-7.68,7.17-7.68,7.17ZM241.33,372.83c.01-.42.07-.68-.31-.94l-8.15-7.3-8.13,8.24h16.59Z"/><path class="cls-6" d="M236.8,355.13c2.12-.18,3.77,1.85,3.19,3.9-.69,2.44-3.92,3.03-5.41.99s-.16-4.68,2.22-4.88ZM236.99,356.35c-2.41.07-2.32,3.8.17,3.67,2.34-.12,2.19-3.74-.17-3.67Z"/><g id="fLvheL.tif"><path class="cls-4" d="M357.32,195.68l57.88,46.35c1.16,2.33.69,4.31-.88,6.29-17.41,13.01-33.78,27.53-51.09,40.66-2.97,2.25-6.08,5.55-10.01,5.04-3.65-.48-5.14-5.93-2.25-8.3l51.52-40.99-4.76-4.23-47.06-37.19c-3.76-4.48,1.4-10.45,6.65-7.64Z"/><path class="cls-4" d="M433.5,244.01l-51.84-40.67c-3.08-4.11.42-9.46,5.36-8.11l59.09,46.91c.69,1.78,1.18,3.48-.1,5.11l-58.02,46.48c-6.08,2.05-10.16-3.97-5.5-8.5,15.35-12.84,32-24.31,47.26-37.24.76-.64,4.25-3.29,3.76-3.98Z"/></g><circle class="cls-6" cx="124" cy="143" r="2"/><circle class="cls-6" cx="130" cy="143" r="2"/><circle class="cls-6" cx="136" cy="143" r="2"/><circle class="cls-6" cx="142" cy="143" r="2"/><circle class="cls-6" cx="148" cy="143" r="2"/><circle class="cls-6" cx="154" cy="143" r="2"/><circle class="cls-6" cx="160" cy="143" r="2"/><circle class="cls-6" cx="166" cy="143" r="2"/><circle class="cls-6" cx="172" cy="143" r="2"/><circle class="cls-6" cx="178" cy="143" r="2"/><circle class="cls-6" cx="184" cy="143" r="2"/><circle class="cls-6" cx="190" cy="143" r="2"/><circle class="cls-6" cx="196" cy="143" r="2"/><circle class="cls-6" cx="202" cy="143" r="2"/><circle class="cls-6" cx="208" cy="143" r="2"/><circle class="cls-6" cx="214" cy="143" r="2"/><circle class="cls-6" cx="220" cy="143" r="2"/><circle class="cls-6" cx="226" cy="143" r="2"/><circle class="cls-6" cx="232" cy="143" r="2"/><circle class="cls-6" cx="238" cy="143" r="2"/><circle class="cls-6" cx="244" cy="143" r="2"/><circle class="cls-6" cx="250" cy="143" r="2"/><circle class="cls-6" cx="123" cy="296" r="2"/><circle class="cls-6" cx="129" cy="296" r="2"/><circle class="cls-6" cx="135" cy="296" r="2"/><circle class="cls-6" cx="141" cy="296" r="2"/><circle class="cls-6" cx="147" cy="296" r="2"/><circle class="cls-6" cx="153" cy="296" r="2"/><circle class="cls-6" cx="159" cy="296" r="2"/><circle class="cls-6" cx="165" cy="296" r="2"/><circle class="cls-6" cx="171" cy="296" r="2"/><circle class="cls-6" cx="177" cy="296" r="2"/><circle class="cls-6" cx="183" cy="296" r="2"/><circle class="cls-6" cx="189" cy="296" r="2"/><circle class="cls-6" cx="195" cy="296" r="2"/><circle class="cls-6" cx="201" cy="296" r="2"/><circle class="cls-6" cx="207" cy="296" r="2"/><circle class="cls-6" cx="213" cy="296" r="2"/><circle class="cls-6" cx="219" cy="296" r="2"/><circle class="cls-6" cx="225" cy="296" r="2"/><circle class="cls-6" cx="231" cy="296" r="2"/><circle class="cls-6" cx="237" cy="296" r="2"/><circle class="cls-6" cx="243" cy="296" r="2"/><circle class="cls-6" cx="249" cy="296" r="2"/><circle class="cls-6" cx="123" cy="281" r="2"/><circle class="cls-6" cx="129" cy="281" r="2"/><circle class="cls-6" cx="135" cy="281" r="2"/><circle class="cls-6" cx="141" cy="281" r="2"/><circle class="cls-6" cx="147" cy="281" r="2"/><circle class="cls-6" cx="153" cy="281" r="2"/><circle class="cls-6" cx="159" cy="281" r="2"/><circle class="cls-6" cx="165" cy="281" r="2"/><circle class="cls-6" cx="171" cy="281" r="2"/><circle class="cls-6" cx="177" cy="281" r="2"/><circle class="cls-6" cx="183" cy="281" r="2"/><circle class="cls-6" cx="189" cy="281" r="2"/><circle class="cls-6" cx="195" cy="281" r="2"/><circle class="cls-6" cx="201" cy="281" r="2"/><circle class="cls-6" cx="207" cy="281" r="2"/><circle class="cls-6" cx="213" cy="281" r="2"/><circle class="cls-6" cx="219" cy="281" r="2"/><circle class="cls-6" cx="225" cy="281" r="2"/><circle class="cls-6" cx="231" cy="281" r="2"/><circle class="cls-6" cx="237" cy="281" r="2"/><circle class="cls-6" cx="243" cy="281" r="2"/><circle class="cls-6" cx="249" cy="281" r="2"/></g><g id="desktop"><rect class="cls-7" x="653.5" y="371.5" width="12" height="53" rx="6" ry="6"/><rect class="cls-7" x="756.5" y="371.5" width="12" height="53" rx="6" ry="6"/><path class="cls-5" d="M704.07,339.11c7.97-1.15,9.15,10.86,1.51,11.57s-8.71-10.53-1.51-11.57Z"/><path class="cls-8" d="M704.46,340.56c-.34.05.13,0,.23-.01.16,0,.32-.01.48-.01s.31.01.46.02c.07,0,.15.01.22.02-.18-.02-.22-.04-.02,0,.27.06.54.12.81.21.06.02.13.05.19.07.19.05-.25-.14-.08-.03.12.08.27.13.39.2.11.06.22.14.33.2.34.21-.1-.11.08.05.2.18.4.36.58.56.04.04.3.37.15.17s.1.15.13.19c.15.22.27.46.39.7.18.36-.04-.16.03.08.04.12.09.24.13.36.08.26.15.52.2.78.01.06.02.13.03.19.05.19-.02-.32-.02-.12,0,.13.03.25.03.38.02.27.01.54,0,.81,0,.13-.02.25-.04.38.03-.33.01-.11-.02.07-.05.26-.12.52-.21.78-.02.05-.17.45-.08.22s-.08.16-.1.2c-.12.24-.28.45-.42.68-.12.2.21-.22-.06.07-.09.09-.17.19-.26.28s-.19.18-.28.26c-.05.04-.1.08-.15.12.12-.1.2-.14.03-.03-.21.14-.43.26-.65.38-.06.03-.13.06-.19.09.32-.15.14-.05.06-.03-.17.05-.34.12-.52.17-.15.04-.29.08-.44.11-.1.02-.56.07-.19.04-.35.03-.7.05-1.05.04-.14,0-.27-.02-.41-.03.39.03-.05-.01-.16-.03-.32-.07-.62-.16-.92-.28.31.11.02,0-.11-.06-.12-.06-.24-.13-.35-.2s-.22-.16-.33-.22c.27.16.05.04-.08-.08-.2-.18-.36-.37-.54-.56-.13-.14.14.22-.06-.08-.09-.14-.18-.27-.26-.41-.07-.11-.13-.23-.19-.34-.03-.06-.17-.39-.09-.18.09.23-.07-.18-.08-.23-.05-.14-.09-.28-.13-.42-.07-.25-.11-.51-.16-.77.08.44,0,.03,0-.09-.01-.16-.02-.33-.02-.49,0-.13,0-.26.01-.39,0-.14.12-.62.01-.19.07-.28.11-.57.2-.86.05-.16.11-.31.16-.46-.12.34,0,.01.07-.13.07-.13.14-.26.22-.38.04-.06.29-.43.16-.25s.14-.17.2-.23c.11-.12.23-.23.35-.35.05-.05.1-.09.15-.13-.12.11-.19.13-.02.02.13-.09.26-.17.39-.25s.28-.15.43-.22c.18-.1-.26.09-.06.02.09-.03.17-.07.26-.1.37-.13.76-.21,1.15-.27.8-.12,1.24-1.13,1.05-1.85-.24-.86-1.04-1.17-1.85-1.05-3.22.49-5.45,3.05-5.83,6.22-.34,2.84.96,5.88,3.45,7.37,2.72,1.63,6.63,1.18,8.87-1.07,1.97-1.97,2.55-5.12,1.67-7.73-.52-1.55-1.48-2.89-2.84-3.81-1.58-1.07-3.48-1.23-5.32-.98-.8.11-1.24,1.14-1.05,1.85.24.87,1.04,1.16,1.85,1.05Z"/><rect class="cls-3" x="506.5" y="87" width="397.5" height="293" rx="21.65" ry="21.65"/><rect class="cls-8" x="506.5" y="328" width="397" height="5.5"/><rect class="cls-7" x="608.5" y="414.5" width="205" height="14" rx="7" ry="7"/><circle class="cls-2" cx="710.5" cy="356.5" r="9"/><circle cx="710.5" cy="107.5" r="7"/><path class="cls-5" d="M710.5,101c3.58,0,6.5,2.92,6.5,6.5s-2.92,6.5-6.5,6.5-6.5-2.92-6.5-6.5,2.92-6.5,6.5-6.5M710.5,100c-4.12,0-7.5,3.38-7.5,7.5h0c0,4.13,3.38,7.5,7.5,7.5s7.5-3.38,7.5-7.5h0c0-4.13-3.38-7.5-7.5-7.5h0Z"/><rect class="cls-1" x="527.5" y="189.5" width="206" height="118" rx="11.5" ry="11.5"/><path class="cls-6" d="M722,190c6.07,0,11,4.93,11,11v95c0,6.07-4.93,11-11,11h-183c-6.07,0-11-4.93-11-11v-95c0-6.07,4.93-11,11-11h183M722,189h-183c-6.6,0-12,5.4-12,12v95c0,6.6,5.4,12,12,12h183c6.6,0,12-5.4,12-12v-95c0-6.6-5.4-12-12-12h0Z"/><rect class="cls-1" x="524.5" y="127.5" width="362" height="41" rx="11.5" ry="11.5"/><path class="cls-6" d="M875,128c6.07,0,11,4.93,11,11v18c0,6.07-4.93,11-11,11h-339c-6.07,0-11-4.93-11-11v-18c0-6.07,4.93-11,11-11h339M875,127h-339c-6.6,0-12,5.4-12,12v18c0,6.6,5.4,12,12,12h339c6.6,0,12-5.4,12-12v-18c0-6.6-5.4-12-12-12h0Z"/><rect class="cls-1" x="748.5" y="190.5" width="138" height="45" rx="11.5" ry="11.5"/><path class="cls-6" d="M875,191c6.07,0,11,4.93,11,11v22c0,6.07-4.93,11-11,11h-115c-6.07,0-11-4.93-11-11v-22c0-6.07,4.93-11,11-11h115M875,190h-115c-6.6,0-12,5.4-12,12v22c0,6.6,5.4,12,12,12h115c6.6,0,12-5.4,12-12v-22c0-6.6-5.4-12-12-12h0Z"/><rect class="cls-1" x="748" y="247.5" width="60" height="60" rx="11.5" ry="11.5"/><path class="cls-6" d="M796.5,248c6.07,0,11,4.93,11,11v37c0,6.07-4.93,11-11,11h-37c-6.07,0-11-4.93-11-11v-37c0-6.07,4.93-11,11-11h37M796.5,247h-37c-6.6,0-12,5.4-12,12v37c0,6.6,5.4,12,12,12h37c6.6,0,12-5.4,12-12v-37c0-6.6-5.4-12-12-12h0Z"/><rect class="cls-1" x="823.5" y="247.5" width="60" height="60" rx="11.5" ry="11.5"/><path class="cls-6" d="M872,248c6.07,0,11,4.93,11,11v37c0,6.07-4.93,11-11,11h-37c-6.07,0-11-4.93-11-11v-37c0-6.07,4.93-11,11-11h37M872,247h-37c-6.6,0-12,5.4-12,12v37c0,6.6,5.4,12,12,12h37c6.6,0,12-5.4,12-12v-37c0-6.6-5.4-12-12-12h0Z"/><path class="cls-6" d="M587,212.83l85.62-.04c2.04.12,3.82,1.68,4.08,3.72v66.53c-.22,2.01-1.99,3.53-3.96,3.72h-85.53c-2.06-.19-3.74-1.77-3.96-3.84v-66.29c.24-1.97,1.76-3.56,3.75-3.8ZM587.11,215.87c-.46.14-.71.53-.88.95l-.06,65.49c.03.69.52,1.43,1.28,1.4l85.56-.1c.48-.29.78-.72.77-1.3v-65.07c-.03-.69-.52-1.43-1.28-1.4l-85.38.03Z"/><path class="cls-6" d="M594.79,223.06l70.03-.04c1.69.14,2.79,1.17,2.99,2.86v47.77c-.1,1.58-1.39,2.84-2.98,2.86h-69.82c-1.69-.19-2.72-1.29-2.86-2.99v-47.52c.13-1.57,1.09-2.69,2.66-2.95ZM664.63,267.25v-40.87l-.18-.18h-68.96l-.18.18v30.28l20.16-18.64,17.61,18.95.18.06,9.49-9.38,21.89,19.61ZM595.31,261.1v12.06l.18.18h21.69l13.71-13.95-15.35-16.82h-.36s-19.86,18.53-19.86,18.53ZM664.63,273.35c.03-1.09.18-1.76-.79-2.44l-21.06-18.87-21.03,21.31h42.88Z"/><path class="cls-6" d="M652.91,227.57c5.49-.46,9.74,4.79,8.25,10.07-1.78,6.3-10.12,7.83-14,2.55-3.69-5.02-.41-12.11,5.75-12.62ZM653.4,230.73c-6.22.18-6,9.82.45,9.48,6.05-.32,5.67-9.66-.45-9.48Z"/><path class="cls-6" d="M761.31,263.43h33.11c.79.03,1.48.63,1.58,1.42v25.73c-.08.78-.77,1.37-1.53,1.44h-33.08c-.79-.08-1.45-.68-1.53-1.48v-25.64c.09-.76.68-1.38,1.45-1.47ZM761.35,264.6c-.18.05-.27.21-.34.37l-.02,25.33c.01.27.2.55.49.54l33.09-.04c.19-.11.3-.28.3-.5v-25.17c-.01-.27-.2-.55-.49-.54h-33.02Z"/><path class="cls-6" d="M764.32,267.38h27.08c.65.04,1.08.44,1.15,1.09v18.48c-.04.61-.54,1.1-1.15,1.11h-27c-.66-.07-1.05-.5-1.11-1.15v-18.38c.05-.61.42-1.04,1.03-1.14ZM791.33,284.48v-15.81l-.07-.07h-26.67l-.07.07v11.71l7.8-7.21,6.81,7.33.07.02,3.67-3.63,8.46,7.58ZM764.52,282.1v4.67l.07.07h8.39l5.3-5.4-5.94-6.51h-.14s-7.68,7.17-7.68,7.17ZM791.33,286.83c.01-.42.07-.68-.31-.94l-8.15-7.3-8.13,8.24h16.59Z"/><path class="cls-6" d="M786.8,269.13c2.12-.18,3.77,1.85,3.19,3.9-.69,2.44-3.92,3.03-5.41.99s-.16-4.68,2.22-4.88ZM786.99,270.35c-2.41.07-2.32,3.8.17,3.67,2.34-.12,2.19-3.74-.17-3.67Z"/><path class="cls-6" d="M836.31,264.43h33.11c.79.03,1.48.63,1.58,1.42v25.73c-.08.78-.77,1.37-1.53,1.44h-33.08c-.79-.08-1.45-.68-1.53-1.48v-25.64c.09-.76.68-1.38,1.45-1.47ZM836.35,265.6c-.18.05-.27.21-.34.37l-.02,25.33c.01.27.2.55.49.54l33.09-.04c.19-.11.3-.28.3-.5v-25.17c-.01-.27-.2-.55-.49-.54h-33.02Z"/><path class="cls-6" d="M839.32,268.38h27.08c.65.04,1.08.44,1.15,1.09v18.48c-.04.61-.54,1.1-1.15,1.11h-27c-.66-.07-1.05-.5-1.11-1.15v-18.38c.05-.61.42-1.04,1.03-1.14ZM866.33,285.48v-15.81l-.07-.07h-26.67l-.07.07v11.71l7.8-7.21,6.81,7.33.07.02,3.67-3.63,8.46,7.58ZM839.52,283.1v4.67l.07.07h8.39l5.3-5.4-5.94-6.51h-.14s-7.68,7.17-7.68,7.17ZM866.33,287.83c.01-.42.07-.68-.31-.94l-8.15-7.3-8.13,8.24h16.59Z"/><path class="cls-6" d="M861.8,270.13c2.12-.18,3.77,1.85,3.19,3.9-.69,2.44-3.92,3.03-5.41.99s-.16-4.68,2.22-4.88ZM861.99,271.35c-2.41.07-2.32,3.8.17,3.67,2.34-.12,2.19-3.74-.17-3.67Z"/><circle class="cls-6" cx="617" cy="148" r="3"/><circle class="cls-6" cx="626" cy="148" r="3"/><circle class="cls-6" cx="635" cy="148" r="3"/><circle class="cls-6" cx="644" cy="148" r="3"/><circle class="cls-6" cx="653" cy="148" r="3"/><circle class="cls-6" cx="662" cy="148" r="3"/><circle class="cls-6" cx="671" cy="148" r="3"/><circle class="cls-6" cx="680" cy="148" r="3"/><circle class="cls-6" cx="689" cy="148" r="3"/><circle class="cls-6" cx="698" cy="148" r="3"/><circle class="cls-6" cx="707" cy="148" r="3"/><circle class="cls-6" cx="716" cy="148" r="3"/><circle class="cls-6" cx="725" cy="148" r="3"/><circle class="cls-6" cx="734" cy="148" r="3"/><circle class="cls-6" cx="743" cy="148" r="3"/><circle class="cls-6" cx="752" cy="148" r="3"/><circle class="cls-6" cx="761" cy="148" r="3"/><circle class="cls-6" cx="770" cy="148" r="3"/><circle class="cls-6" cx="779" cy="148" r="3"/><circle class="cls-6" cx="788" cy="148" r="3"/><circle class="cls-6" cx="797" cy="148" r="3"/><circle class="cls-6" cx="806" cy="148" r="3"/><circle class="cls-6" cx="754" cy="205" r="2"/><circle class="cls-6" cx="760" cy="205" r="2"/><circle class="cls-6" cx="766" cy="205" r="2"/><circle class="cls-6" cx="772" cy="205" r="2"/><circle class="cls-6" cx="778" cy="205" r="2"/><circle class="cls-6" cx="784" cy="205" r="2"/><circle class="cls-6" cx="790" cy="205" r="2"/><circle class="cls-6" cx="796" cy="205" r="2"/><circle class="cls-6" cx="802" cy="205" r="2"/><circle class="cls-6" cx="808" cy="205" r="2"/><circle class="cls-6" cx="814" cy="205" r="2"/><circle class="cls-6" cx="820" cy="205" r="2"/><circle class="cls-6" cx="826" cy="205" r="2"/><circle class="cls-6" cx="832" cy="205" r="2"/><circle class="cls-6" cx="838" cy="205" r="2"/><circle class="cls-6" cx="844" cy="205" r="2"/><circle class="cls-6" cx="850" cy="205" r="2"/><circle class="cls-6" cx="856" cy="205" r="2"/><circle class="cls-6" cx="862" cy="205" r="2"/><circle class="cls-6" cx="868" cy="205" r="2"/><circle class="cls-6" cx="874" cy="205" r="2"/><circle class="cls-6" cx="880" cy="205" r="2"/><circle class="cls-6" cx="754" cy="219" r="2"/><circle class="cls-6" cx="760" cy="219" r="2"/><circle class="cls-6" cx="766" cy="219" r="2"/><circle class="cls-6" cx="772" cy="219" r="2"/><circle class="cls-6" cx="778" cy="219" r="2"/><circle class="cls-6" cx="784" cy="219" r="2"/><circle class="cls-6" cx="790" cy="219" r="2"/><circle class="cls-6" cx="796" cy="219" r="2"/><circle class="cls-6" cx="802" cy="219" r="2"/><circle class="cls-6" cx="808" cy="219" r="2"/><circle class="cls-6" cx="814" cy="219" r="2"/><circle class="cls-6" cx="820" cy="219" r="2"/><circle class="cls-6" cx="826" cy="219" r="2"/><circle class="cls-6" cx="832" cy="219" r="2"/><circle class="cls-6" cx="838" cy="219" r="2"/><circle class="cls-6" cx="844" cy="219" r="2"/><circle class="cls-6" cx="850" cy="219" r="2"/><circle class="cls-6" cx="856" cy="219" r="2"/><circle class="cls-6" cx="862" cy="219" r="2"/><circle class="cls-6" cx="868" cy="219" r="2"/><circle class="cls-6" cx="874" cy="219" r="2"/><circle class="cls-6" cx="880" cy="219" r="2"/></g></svg>