<?xml version="1.0" encoding="UTF-8"?><svg id="Layer_1" xmlns="http://www.w3.org/2000/svg" viewBox="0 0 500 500"><defs><style>.cls-1{fill:#dee2a6;}</style></defs><g id="qKkCOO"><path class="cls-1" d="M280.03,90.19c138.14-18.79,179.69,164.27,63.1,211.45-40.6,16.43-83.65,8.6-116.7-19.5l-13.03,12.59,6.68,7.41-1.94,6.6-103.34,100.67c-18.97,3.76-30.17-12.11-22.09-29.05l98.53-98.52c5.96-5.31,9.9.28,14.01,4.74l12.59-13.03c-57.4-60.36-20.26-172.15,62.19-183.36ZM356.26,257.98c72.17-68.05-23.32-182.66-102.33-124.35-91.81,67.75,20.05,201.93,102.33,124.35Z"/><path class="cls-1" d="M250.45,313.27c.79-2.8,7.27-4.78,9.25-3.47,4.17,2.77,1.63,41.16,2.33,48.68l18.23,2.64c1.69,5.75-1.05,13.59.27,18.91.59,2.39,5.27,2.68,7.06,4.93,14.19,17.89-14.41,36.99-25.35,18.36-7.28-12.4,9.83-20.86,6.76-33.26l-14.72-.37-3.83-3.11v-53.31Z"/><path class="cls-1" d="M310.71,339.94l17.08.31,3.47,3.48c2.03,10.6-1.56,24.45.28,34.51,1.09,5.92,16.38,10.15,7.14,25.59-9.94,16.61-35.55,2.43-26.26-17.07,1.87-3.93,7-4.52,7.61-6.76,1.91-6.98-1.42-20.49-.02-28.5-23.68,7.36-29.09-23.54-12.8-32.43,5.38,1.12,3.2,16.55,3.5,20.86Z"/><path class="cls-1" d="M361.71,321.38l1.18,2.31,3.45-2.31c4.63,0,9.3-.02,13.92-.01,2.11,2.04-2.14,50.25-.07,58.66.52,2.13,10.96,4.05,10.98,17.15.03,19.58-33.97,17.03-30.87-4.02,1.66-11.28,10.68-10.67,10.68-11.51v-51l-18.69-1.01c-9.62-16.15,8.87-31.81,9.42-8.26Z"/><path class="cls-1" d="M118.83,167.85c4.09,2.38,24.12-3.42,20.34,8.64-1.87,5.97-14.79,2.39-19.21,3.46-2.46.59-7.37,15.02-22.46,8.12-17.94-8.2-5.26-37.26,15.72-27.24,3.87,1.85,4.47,6.37,5.61,7.03Z"/><path class="cls-1" d="M139.2,128.98c-1.04,1.08-15.34-1.01-19.25-.04-2.13.52-4.83,11.89-16.34,11-19.09-1.47-21.5-35.17,6.57-29.45,5.04,1.03,6.48,5.49,9.76,6.46,9.33,2.76,21.48-5,19.26,12.03Z"/><path class="cls-1" d="M118.79,218.91c3.72,2.23,15.25-.55,20.41.5l-3.8,11.26c-15.09-4.06-25.46,13.55-40.29,6.14s.01-38.15,18.51-25.41c3.42,2.36,4.15,6.9,5.17,7.51Z"/><path class="cls-1" d="M169.33,128.98h-18.56l1.02-9.4c9.31-5.26,19.99-3.29,17.54,9.4Z"/><path class="cls-1" d="M199.46,128.98h-18.56l1.02-9.4c9.31-5.26,19.99-3.29,17.54,9.4Z"/><path class="cls-1" d="M169.33,219.4l-2.18,10.55c-10.38,3.14-18.39,1.76-16.38-10.55h18.56Z"/><polygon class="cls-1" points="366.35 321.38 362.9 323.69 361.71 321.38 366.35 321.38"/><path class="cls-1" d="M285.22,140.58c9.42-4.48,20.65-1.94,30.98-2l3.81,11.28c8.72-15.34,35.57,15.33,34.87,21.9-.4,3.73-3.83,5.13-4.76,8.21l9.41,1.04c4.66,3.13,2.36,28.49-.14,33.75l-2.32,4.64c-1.79.52-4.8-.37-6.95.02,13,12.76-11.62,23.03-18.58,33.75l-11.55-3.63v9.26h-33.62c-4.1,0-7.15-5.15-5.82-9.27-12.4,12.92-24.72-12.3-34.51-20.17l4.4-9.94-9.27-.02v-39.41h9.26s-3.63-11.56-3.63-11.56c10.72-6.96,20.99-31.58,33.75-18.58.39-2.15-.5-5.16.02-6.95l4.64-2.32ZM310.39,150.21c-.7-.65-17.13-1.04-19.11-.5-2.49.68-1.23,8.15-6.05,10.71-5.6,2.98-10.64-2.62-16.14-.23-17.15,7.45,2.82,26.53-18.79,30.5l.49,19.12c18.26,1.69,6.94,13.98,10,21.08,7.58,17.64,26.62-2.74,30.5,18.79h18c3.94-18.83,15.44-7.77,22.23-10.51,17.41-7.01-2.62-26.89,18.75-30.47v-18.01c-17.49-3.64-7.48-15.19-10.48-22.19-6.03-14.07-19.13-4.75-25.43-9.51-4.09-3.1-3.04-7.9-3.97-8.77Z"/><path class="cls-1" d="M285.22,140.58l-4.64,2.32c.79-2.72,3.43-1.74,4.64-2.32Z"/><path class="cls-1" d="M357.08,219.39l2.32-4.64c-.57,1.21.41,3.84-2.32,4.64Z"/><path class="cls-1" d="M296.27,168.85c42.7-5.84,48.76,67.86-2.8,59.65-31.22-4.97-29.97-55.17,2.8-59.65ZM314.62,214.02c19.64-17.96-10.7-48.31-28.66-28.66-17.17,18.78,9.92,45.81,28.66,28.66Z"/></g></svg>