<?xml version="1.0" encoding="UTF-8"?><svg id="Layer_1" xmlns="http://www.w3.org/2000/svg" viewBox="0 0 500 500"><defs><style>.cls-1{fill:#dee2a6;}</style></defs><path class="cls-1" d="M146.02,158.93c35.47,10.56,59.47-16.86,95.76-14.93,12.23.65,20.77,6.44,29.84,7.4,9.54,1.01,21.77-2.87,33.21-1.73,19.83,1.98,38.15,15.57,60.4,7.41l-1.6-11.72c.78-2.42,2.69-3.53,4.8-4.59,4.86-2.45,52.76-15.14,56.38-14.46,1.47.27,2.93.98,3.71,2.32l38.59,129.3c-1.3,3.3-4.14,4.67-7.14,5.96-6.86,2.96-46.16,13.37-53.2,13.85-11.19.75-8.2-8.9-11.1-9.34l-22.83,2.18c-.76,9.73-7.42,19.85-16.82,23.13-2.76.96-8.77.5-9.25.96s-.22,7.34-3.79,12c-4.77,6.21-15.58,7.68-16.42,8.66-.81.95-.58,6.45-2.38,9.69-7.57,13.59-25.24,6.12-27.76,7.6-1.57.92-3.33,6.17-6.36,8.42-13.81,10.26-32.31-8.06-46.37-11.31-8.53,12.44-15.24,25.42-32.75,21.63-12.19-2.64-12.42-12.13-15.13-13.69-1.85-1.06-9.74-.62-14.91-2.74-6.11-2.51-8.19-7.96-9.2-8.54-1.71-.98-16.62,5.79-26.63-2.07-7.97-6.26-6.06-14.31-8.74-18.19-.81-1.17-8.74-3.23-11.71-5.95-11.18-10.28-3.67-26.31-4.72-27.74l-18.44-7.6-3.7,10.28c-2.58,1.62-5.18.87-7.91.48-5.27-.74-49.32-17.46-54-20.38-1.2-.75-2.61-1.03-2.95-2.71l47.45-129,8.55-1.38c13.67,8.57,44.08,12.15,55.98,20.33,9.68,6.66-.62,14.48,1.15,16.49ZM131.1,151.58l-42.63-13.06-39.03,107.7c7.65-.1,35.94,15.72,40.62,12.79l41.04-107.44ZM419.09,142.22l-39.07,10.34,29.72,107.72c3.34,2.26,40.67-7.53,41.1-9.62l-31.74-108.44ZM253.76,158.95c-6.06,1.17-11.96-2.02-17.63-2.01-20.23.02-42.42,16.01-61.47,18.56-12.42,1.66-23.57-2.99-35.76-1.38l-29.86,79.4,20.96,7.76c8.34-14.63,23.42-13.95,35.57-3.74,3.41.02,8.81-13.59,25.13-10.49,15.43,2.93,13.17,15.02,17.88,17.94,4.31,2.67,9.91,1.05,15.57,6.27,4.64,4.28,4.74,10.88,7.37,13.07,3.01,2.5,11.3,2.57,16.07,7.16,7.34,7.06,7.48,17.94,4.38,27.12,6.71-.1,27.98,16.4,31.52,8.45,1.44-3.22-2.16-2.83-3.47-3.83-4.57-3.47-18-8.35-19.78-11.92-2.36-4.73.38-11.02,5.59-11.12,4.49-.09,30.17,17.68,38.12,19.63,6.83,1.68,11.93-3.84,7.56-9.56-7.85-8.17-57.25-30.53-59.3-37.38-.6-2.01-.73-4.56.52-6.29l12.11-.69c11.49,4.53,51.45,34.36,60.47,34.44,5.81.05,11.08-5.29,6.63-10.51-7.36-7.69-57.85-33.37-59.4-39.23-1.03-3.91,2.72-7.72,6.4-8.07l67.21,38.77c10.44.16,15.75-10.2,9.02-18.44-21.69-12.93-43.55-32.38-65.51-44.09-26-13.85-32.08,6.23-52.78,15.25-19.37,8.44-36.64-2.27-33.14-23.86,1.82-11.23,37.37-38.95,47.7-46.93,1.54-1.19,3.4.03,2.34-4.25ZM370.74,170.15c-9.57.49-16.87,4.24-26.92,3.75-15.68-.77-32.9-11.11-48.35-11.29-33.72-.39-53.84,27.97-77.11,47.34-4.45,6.58.19,15.1,8.06,13.7,6.79-1.2,25.33-17.45,34.81-21.02,12.42-4.68,19.76-3.92,31.43,1.95,20.64,10.37,68.92,52.47,88.36,52.82,3.24.06,6.73-1.68,10.01-2.04l-20.3-85.21ZM182.61,261.41c-2.41.75-28.67,37-30.02,40.66-1.79,4.82-1.82,8.88,2.72,12.04,4.19,2.12,6.26.79,9.44-1.78,1.92-1.55,27.79-37.84,28.63-40.16,2.08-5.8.47-9.55-5.66-11.1-1.72-.23-3.43-.17-5.1.34ZM147.22,263.29c-5.06,3.99-18.34,17.68-15.22,23.82,7.29,14.32,27.79-11.7,22.41-20.43l-7.2-3.39ZM206.8,279.96c-3.22.89-23.15,27.57-24.53,31.4-3.4,9.45,6.11,14.47,13.11,9.32,1.39-1.03,19.61-26.4,20.23-28.07,2.73-7.4-.82-14.85-8.82-12.65ZM230.84,298.66c-5.21.47-23.93,26.69-23.2,31.68,1,6.9,8.69,9.24,14.54,5.98,1.28-.71,16.32-21.73,17.18-23.68,3.12-7.06-1.33-14.63-8.52-13.99Z"/><path class="cls-1" d="M253.15,56.96c6.15-1.95,9.28,2.57,10,8.08,1.15,8.79,1.4,47.75-.14,55.77-1.88,9.8-13.32,9.6-14.84-3.63-.9-7.83-.91-51.24,1.41-56.24.75-1.62,1.76-3.4,3.57-3.97Z"/><path class="cls-1" d="M253.15,372.77c6.15-1.95,9.28,2.57,10,8.08,1.15,8.79,1.4,47.75-.14,55.77-1.88,9.8-13.32,9.6-14.84-3.63-.9-7.83-.91-51.24,1.41-56.24.75-1.62,1.76-3.4,3.57-3.97Z"/><path class="cls-1" d="M214.21,365.36c7.86-.33,9.21,6.5,7.16,12.87-.65,2.02-18.14,31.2-19.51,32.51-6.5,6.23-14.79.87-12.77-7.03.5-1.94,16.26-28.5,18.56-31.75,1.82-2.57,3.61-5.18,6.57-6.6Z"/><path class="cls-1" d="M193.79,86.76c3.71-1.04,5.45-.06,8.06,2.44,1.32,1.26,17.93,28.79,18.88,31.25,2.05,5.28,2.84,9.77-2.26,13.51-1.94,1.28-3.61,1.1-5.6.01s-21.98-33.08-23.16-36.44c-.72-2.05-1.68-3.72-.73-5.98.53-1.95,2.84-4.24,4.79-4.79Z"/><path class="cls-1" d="M310.04,88.92c2.36-2,5.77-3.05,8.72-1.59,3.39,2.27,4.29,5,3.48,8.94-.55,2.67-20.76,35.38-22.84,36.8-7.07,4.81-11.79-2.57-9.93-9.87.49-1.94,19.05-32.98,20.58-34.28Z"/><path class="cls-1" d="M310.04,411.02c-1.52-1.29-20.09-32.34-20.58-34.28-1.85-7.3,2.86-14.68,9.93-9.87,2.08,1.42,22.3,34.12,22.84,36.8.81,3.94-.1,6.68-3.48,8.94-2.95,1.46-6.36.41-8.72-1.59Z"/></svg>