<svg xmlns="http://www.w3.org/2000/svg" xmlns:xlink="http://www.w3.org/1999/xlink" width="360" zoomAndPan="magnify" viewBox="0 0 270 269.999989" height="360" preserveAspectRatio="xMidYMid meet" version="1.0"><defs><clipPath id="a35fdcc939"><path d="M 94.5 205.636719 L 175.535156 205.636719 L 175.535156 233.707031 L 94.5 233.707031 Z M 94.5 205.636719 " clip-rule="nonzero"/></clipPath><clipPath id="a13642befb"><path d="M 135 205.636719 C 112.632812 205.636719 94.5 211.917969 94.5 219.671875 C 94.5 227.421875 112.632812 233.707031 135 233.707031 C 157.367188 233.707031 175.5 227.421875 175.5 219.671875 C 175.5 211.917969 157.367188 205.636719 135 205.636719 Z M 135 205.636719 " clip-rule="nonzero"/></clipPath><clipPath id="1a07e22dac"><path d="M 0.5 0.636719 L 81.535156 0.636719 L 81.535156 28.707031 L 0.5 28.707031 Z M 0.5 0.636719 " clip-rule="nonzero"/></clipPath><clipPath id="d6d3740b7e"><path d="M 41 0.636719 C 18.632812 0.636719 0.5 6.917969 0.5 14.671875 C 0.5 22.421875 18.632812 28.707031 41 28.707031 C 63.367188 28.707031 81.5 22.421875 81.5 14.671875 C 81.5 6.917969 63.367188 0.636719 41 0.636719 Z M 41 0.636719 " clip-rule="nonzero"/></clipPath><clipPath id="1bbec9972b"><rect x="0" width="82" y="0" height="29"/></clipPath></defs><g clip-path="url(#a35fdcc939)"><g clip-path="url(#a13642befb)"><g transform="matrix(1, 0, 0, 1, 94, 205)"><g clip-path="url(#1bbec9972b)"><g clip-path="url(#1a07e22dac)"><g clip-path="url(#d6d3740b7e)"><path fill="#000000" d="M 0.5 0.636719 L 81.535156 0.636719 L 81.535156 28.707031 L 0.5 28.707031 Z M 0.5 0.636719 " fill-opacity="1" fill-rule="nonzero"/></g></g></g></g></g></g></svg>