<?xml version="1.0" encoding="UTF-8"?><svg xmlns="http://www.w3.org/2000/svg" viewBox="0 0 800 600"><defs><style>.cls-1{fill:#dee2a6;}.cls-2{fill:#b17a85;}.cls-3{fill:#11121b;}</style></defs><g id="Layer_1"><rect class="cls-3" x="1.5" y="1.5" width="797" height="597" rx="10.5" ry="10.5"/><path class="cls-2" d="M788,3c4.96,0,9,4.04,9,9v576c0,4.96-4.04,9-9,9H12c-4.96,0-9-4.04-9-9V12C3,7.04,7.04,3,12,3h776M788,0H12C5.4,0,0,5.4,0,12v576c0,6.6,5.4,12,12,12h776c6.6,0,12-5.4,12-12V12c0-6.6-5.4-12-12-12h0Z"/><rect class="cls-3" y="50" width="800" height="2"/><polygon class="cls-2" points="800 50 0 50 0 52 800 52 800 50 800 50"/><rect class="cls-3" x="495.73" y="193" width="248.27" height="5" rx="2.5" ry="2.5"/><path class="cls-1" d="M741.5,193h-243.27c-1.38,0-2.5,1.12-2.5,2.5s1.12,2.5,2.5,2.5h243.27c1.38,0,2.5-1.12,2.5-2.5s-1.12-2.5-2.5-2.5h0Z"/><rect class="cls-3" x="496" y="278" width="248.27" height="5" rx="2.5" ry="2.5"/><path class="cls-1" d="M741.77,278h-243.27c-1.38,0-2.5,1.12-2.5,2.5s1.12,2.5,2.5,2.5h243.27c1.38,0,2.5-1.12,2.5-2.5s-1.12-2.5-2.5-2.5h0Z"/><rect class="cls-3" x="496" y="351" width="248.27" height="5" rx="2.5" ry="2.5"/><path class="cls-1" d="M741.77,351h-243.27c-1.38,0-2.5,1.12-2.5,2.5s1.12,2.5,2.5,2.5h243.27c1.38,0,2.5-1.12,2.5-2.5s-1.12-2.5-2.5-2.5h0Z"/><rect class="cls-3" x="496" y="431" width="148.53" height="5"/><polygon class="cls-1" points="644.53 431 496 431 496 436 644.53 436 644.53 431 644.53 431"/><circle class="cls-2" cx="33" cy="28" r="4.5"/><path class="cls-2" d="M33,26c1.1,0,2,.9,2,2s-.9,2-2,2-2-.9-2-2,.9-2,2-2M33,21c-3.87,0-7,3.13-7,7s3.13,7,7,7,7-3.13,7-7-3.13-7-7-7h0Z"/><circle class="cls-2" cx="61" cy="28" r="4.5"/><path class="cls-2" d="M61,26c1.1,0,2,.9,2,2s-.9,2-2,2-2-.9-2-2,.9-2,2-2M61,21c-3.87,0-7,3.13-7,7s3.13,7,7,7,7-3.13,7-7-3.13-7-7-7h0Z"/><circle class="cls-2" cx="90" cy="28" r="4.5"/><path class="cls-2" d="M90,26c1.1,0,2,.9,2,2s-.9,2-2,2-2-.9-2-2,.9-2,2-2M90,21c-3.87,0-7,3.13-7,7s3.13,7,7,7,7-3.13,7-7-3.13-7-7-7h0Z"/></g><g id="Layer_2"><rect class="cls-3" x="60.5" y="162.5" width="384" height="313.41" rx="10.5" ry="10.5"/><path class="cls-2" d="M434,164c4.96,0,9,4.04,9,9v292.41c0,4.96-4.04,9-9,9H71c-4.96,0-9-4.04-9-9V173c0-4.96,4.04-9,9-9h363M434,161H71c-6.6,0-12,5.4-12,12v292.41c0,6.6,5.4,12,12,12h363c6.6,0,12-5.4,12-12V173c0-6.6-5.4-12-12-12h0Z"/><path class="cls-2" d="M68.91,469.75c-4.08-.06-7.41-3.77-7.41-8.27v-87.72c0-2.23.83-4.39,2.29-5.94l118.55-126.36c1.41-1.5,3.26-2.33,5.21-2.33s3.83.84,5.24,2.36l96.43,103.81c2.37,2.55,5.53,3.95,8.9,3.95s6.81-1.55,9.17-4.25l45.9-52.56c1.43-1.64,3.35-2.54,5.41-2.54,1.89,0,3.7.78,5.09,2.2l74.28,75.73c1.53,1.56,2.41,3.77,2.41,6.07v92.73c0,4.56-3.36,8.27-7.5,8.27l-363.97-5.16Z"/><path class="cls-2" d="M187.55,241.65h0c1.27,0,2.48.55,3.41,1.56l96.43,103.81c2.85,3.06,6.66,4.75,10.73,4.75s8.22-1.86,11.06-5.1l45.89-52.56c.95-1.08,2.2-1.68,3.52-1.68,1.21,0,2.39.52,3.31,1.45l74.28,75.73c1.08,1.1,1.69,2.67,1.69,4.32v92.73c0,3.18-2.24,5.77-5,5.77h-.06s-363.87-5.15-363.87-5.15c-2.72-.04-4.94-2.63-4.94-5.77v-87.72c0-1.6.59-3.14,1.61-4.23l118.55-126.36c.93-.99,2.13-1.54,3.39-1.54M187.55,236.65c-2.54,0-5.09,1.04-7.04,3.12l-118.55,126.36c-1.9,2.02-2.96,4.78-2.96,7.65v87.72c0,5.89,4.4,10.69,9.87,10.77l363.87,5.15s.09,0,.13,0c5.51,0,10-4.81,10-10.77v-92.73c0-2.96-1.13-5.78-3.12-7.82l-74.28-75.73c-1.93-1.97-4.41-2.95-6.88-2.95-2.66,0-5.32,1.14-7.29,3.39l-45.89,52.56c-1.97,2.26-4.63,3.39-7.29,3.39s-5.12-1.05-7.07-3.15l-96.43-103.81c-1.95-2.1-4.51-3.15-7.07-3.15h0Z"/><path class="cls-2" d="M330.56,384.02c-.42,0-.82-.18-1.12-.51l-55.27-60.05c-.7-.76-.7-2.05,0-2.81.31-.33.71-.51,1.12-.51s.82.18,1.12.51l55.26,60.05c.7.76.7,2.05,0,2.81-.31.33-.7.51-1.12.51Z"/><path class="cls-3" d="M275.29,321.64s.01.01.02.02l55.26,60.05c.17.18.17.6,0,.78,0,0-.02.02-.02.02,0,0-.01-.01-.02-.02l-55.26-60.05c-.17-.18-.17-.6,0-.78,0,0,.02-.02.02-.02M275.29,318.63c-.81,0-1.62.33-2.23,1-1.23,1.33-1.23,3.51,0,4.84l55.26,60.05c.61.67,1.42,1,2.23,1s1.62-.33,2.23-1h0c1.23-1.33,1.23-3.51,0-4.84l-55.26-60.05c-.61-.67-1.42-1-2.23-1h0Z"/><rect class="cls-2" x="70.32" y="467.58" width="75.68" height="5.96" rx="1.5" ry="1.5"/><path class="cls-2" d="M143.5,470.08v.96h-70.68v-.96h70.68M144.5,465.08h-72.68c-2.2,0-4,1.8-4,4v2.96c0,2.2,1.8,4,4,4h72.68c2.2,0,4-1.8,4-4v-2.96c0-2.2-1.8-4-4-4h0Z"/></g></svg>